<?xml version="1.0" encoding="UTF-8" standalone="no"?>
<!-- Created with Inkscape (http://www.inkscape.org/) -->

<svg
   width="182"
   height="47"
   viewBox="0 0 48.154165 12.435416"
   version="1.1"
   id="svg8"
   sodipodi:docname="logo.svg"
   inkscape:version="1.1.1 (3bf5ae0d25, 2021-09-20)"
   xmlns:inkscape="http://www.inkscape.org/namespaces/inkscape"
   xmlns:sodipodi="http://sodipodi.sourceforge.net/DTD/sodipodi-0.dtd"
   xmlns="http://www.w3.org/2000/svg"
   xmlns:svg="http://www.w3.org/2000/svg"
   xmlns:rdf="http://www.w3.org/1999/02/22-rdf-syntax-ns#"
   xmlns:cc="http://creativecommons.org/ns#"
   xmlns:dc="http://purl.org/dc/elements/1.1/">
  <defs
     id="defs2">
    <rect
       x="8.6629581"
       y="703.73309"
       width="2278.9263"
       height="771.45233"
       id="rect50698" />
  </defs>
  <sodipodi:namedview
     id="base"
     pagecolor="#ffffff"
     bordercolor="#666666"
     borderopacity="1.0"
     inkscape:pageopacity="1"
     inkscape:pageshadow="2"
     inkscape:zoom="0.70000001"
     inkscape:cx="963.57141"
     inkscape:cy="220.71428"
     inkscape:document-units="mm"
     inkscape:current-layer="layer1"
     showgrid="false"
     fit-margin-top="5"
     fit-margin-left="6"
     fit-margin-right="6"
     fit-margin-bottom="5"
     inkscape:window-width="2702"
     inkscape:window-height="2091"
     inkscape:window-x="1920"
     inkscape:window-y="32"
     inkscape:window-maximized="0"
     inkscape:pagecheckerboard="0"
     units="mm" />
  <metadata
     id="metadata5">
    <rdf:RDF>
      <cc:Work
         rdf:about="">
        <dc:format>image/svg+xml</dc:format>
        <dc:type
           rdf:resource="http://purl.org/dc/dcmitype/StillImage" />
      </cc:Work>
    </rdf:RDF>
  </metadata>
  <g
     inkscape:label="Layer 1"
     inkscape:groupmode="layer"
     id="layer1"
     transform="translate(-34.804831,273.51295)">
    <g
       aria-label="DENEAU"
       transform="matrix(0.03280671,0,0,0.03280671,21.107183,-300.74472)"
       id="text50696"
       style="font-size:600px;line-height:1;letter-spacing:-50px;word-spacing:0px;white-space:pre;shape-inside:url(#rect50698);fill:#264216">
      <path
         d="m 465.9153,870.3918 q 2.2,0 12.2,0 10.2,0 23.8,0 13.8,0 27.4,0.2 13.8,0 23,0.2 52.6,1.2 85.8,18.8 33.2,17.6 48.6,49.2 15.6,31.6 15.6,74.8 0,45 -16.4,77.8 -16.4,32.6 -50.2,50.4 -33.6,17.8 -85.4,17.8 h -84.4 z m 58.8,47.2 v 194.8 h 26.8 q 24.8,0 45,-9.6 20.4,-9.6 32.6,-31.4 12.2,-21.8 12.2,-58.2 0,-33.8 -10.8,-54.8 -10.8,-21.2 -30.8,-31 -20,-9.8 -47.4,-9.8 z"
         style="font-weight:bold;font-size:400px;font-family:'Public Sans';-inkscape-font-specification:'Public Sans Bold';text-align:center;text-anchor:middle"
         id="path1032" />
      <path
         d="m 703.91503,1159.5918 v -289.2 h 198.6 l -0.2,49.2 h -139.8 v 70.2 h 121.4 v 48.2 h -121.8 v 71.8 l 142.4,0.2 v 49.6 z"
         style="font-weight:bold;font-size:400px;font-family:'Public Sans';-inkscape-font-specification:'Public Sans Bold';text-align:center;text-anchor:middle"
         id="path1034" />
      <path
         d="m 1100.0139,870.3918 h 58.4 v 289.2 h -52.6 l -137.40004,-199 v 199 h -58.2 v -289.2 h 57.8 l 132.00004,191.4 z"
         style="font-weight:bold;font-size:400px;font-family:'Public Sans';-inkscape-font-specification:'Public Sans Bold';text-align:center;text-anchor:middle"
         id="path1036" />
      <path
         d="m 1173.0137,1159.5918 v -289.2 h 198.6 l -0.2,49.2 h -139.8 v 70.2 h 121.4 v 48.2 h -121.8 v 71.8 l 142.4,0.2 v 49.6 z"
         style="font-weight:bold;font-size:400px;font-family:'Public Sans';-inkscape-font-specification:'Public Sans Bold';text-align:center;text-anchor:middle"
         id="path1038" />
      <path
         d="m 1356.2875,1159.5918 103.6,-289.2 h 61.6 l 103.4,289.2 h -58.2 l -23.6,-67 h -104 l -24.2,67 z m 95.8,-118 h 77 l -38.2,-114.8 z"
         style="font-weight:bold;font-size:400px;font-family:'Public Sans';-inkscape-font-specification:'Public Sans Bold';text-align:center;text-anchor:middle"
         id="path1040" />
      <path
         d="m 1836.937,1049.3918 q 0,35 -11.4,60.8 -11.4,25.6 -37,39.6 -25.4,13.8 -67.4,13.8 -42.2,0 -67.6,-14 -25.4,-14.2 -36.8,-40.2 -11.2,-26 -11.2,-62 v -177 h 59.4 v 181.4 q 0,32.4 15.6,47.4 15.6,14.8 40.6,14.8 16.6,0 29.4,-6.4 12.8,-6.6 20,-20.2 7.4,-13.8 7.4,-35.6 v -181.4 h 59 z"
         style="font-weight:bold;font-size:400px;font-family:'Public Sans';-inkscape-font-specification:'Public Sans Bold';text-align:center;text-anchor:middle"
         id="path1042" />
    </g>
  </g>
</svg>
